<?xml version="1.0" standalone="no"?><!DOCTYPE svg PUBLIC "-//W3C//DTD SVG 1.1//EN" "http://www.w3.org/Graphics/SVG/1.1/DTD/svg11.dtd"><svg t="1719469392932" class="icon" viewBox="0 0 1024 1024" version="1.1" xmlns="http://www.w3.org/2000/svg" p-id="14549" xmlns:xlink="http://www.w3.org/1999/xlink" width="200" height="200"><path d="M512 0a512 512 0 1 1 0 1024A512 512 0 0 1 512 0z m0 704a64 64 0 1 0 0 128 64 64 0 0 0 0-128z m0-512a64 64 0 0 0-64 64v320a64 64 0 1 0 128 0V256a64 64 0 0 0-64-64z" fill="#FF0000" p-id="14550"></path><path d="M512 192a64 64 0 0 1 64 64v320a64 64 0 1 1-128 0V256a64 64 0 0 1 64-64z m0 512a64 64 0 1 1 0 128 64 64 0 0 1 0-128z" fill="#FFFFFF" p-id="14551"></path></svg>