<?xml version="1.0" encoding="UTF-8"?>
<svg width="36px" height="36px" viewBox="0 0 36 36" version="1.1" xmlns="http://www.w3.org/2000/svg" xmlns:xlink="http://www.w3.org/1999/xlink">
    <title>安全设备</title>
    <g id="安全设备" stroke="none" stroke-width="1" fill="none" fill-rule="evenodd">
        <polygon id="路径-6" fill="#FFFFFF" points="5.5 3.25 26 16 31.75 13.25 10.5 0.5"></polygon>
        <path d="M5,3.25 L5,22.25 L26,36 C30,34 32,33 32,33 C32,33 32,26.5 32,13.5 L26,16 L5,3.25 Z" id="路径-5" fill="#FFE6EC"></path>
        <path d="M10.5,0 L32,13 L32,33 L26,36 L5,22 L4.99954181,16.683 L4.98823771,16.6760053 L4.99954181,16.656 L4.99954181,10.432 L4.98454181,10.4237121 L4.99954181,10.399 L5,3 L10.5,0 Z M30.9995418,27.276 L26.4995418,29.322 L26.4995418,34.631 L31,32.381 L30.9995418,27.276 Z M13.4995418,21.906 L13.4995418,26.464 L25.4995418,34.464 L25.4995418,29.28 L13.4995418,21.906 Z M30.9995418,21.276 L26.4995418,23.322 L26.4995418,28.223 L30.9995418,26.177 L30.9995418,21.276 Z M20.4995418,20.143 L20.4995418,25.033 L25.4995418,28.105 L25.4995418,23.276 L20.4995418,20.143 Z M5.99954181,17.298 L6,21.464 L12.4995418,25.797 L12.4995418,21.292 L5.99954181,17.298 Z M5.99954181,11.059 L5.99954181,16.123 L19.4995418,24.418 L19.4995418,19.517 L5.99954181,11.059 Z M30.9995418,14.276 L26.4995418,16.322 L26.4995418,22.223 L30.9995418,20.177 L30.9995418,14.276 Z M13.9995418,9.154 L13.9995418,14.892 L25.4995418,22.097 L25.4995418,16.278 L13.9995418,9.154 Z M10.473,1.152 L6.48854181,3.325 L26.036128,15.4336123 L30.6345418,13.343 L10.473,1.152 Z M5.99954181,4.198 L5.99954181,9.88 L12.9995418,14.266 L12.9995418,8.534 L5.99954181,4.198 Z" id="矩形" fill="#FF5A81" fill-rule="nonzero"></path>
    </g>
</svg>