<?xml version="1.0" encoding="UTF-8"?>
<svg width="28px" height="28px" viewBox="0 0 28 28" version="1.1" xmlns="http://www.w3.org/2000/svg" xmlns:xlink="http://www.w3.org/1999/xlink">
    <title>设备4</title>
    <g id="设备4" stroke="none" stroke-width="1" fill="none" fill-rule="evenodd">
        <polygon id="矩形" fill="#DBECFF" points="4 6 13 10.5 24 4 24 22.25 12.75 27.75 4 24"></polygon>
        <polygon id="矩形" fill="#FFFFFF" points="4.5 6.5 15.25 0.5 23.5 4.5 13 10.5"></polygon>
        <path d="M15.2670611,0.557567406 L23.5,4.32119661 L23.5,21.9440321 L12.7378591,27.4446818 L4.5,23.6788034 L4.5,6.3 L15.2670611,0.557567406 Z" id="矩形" stroke="#057EFF"></path>
        <path d="M4.5,6.5 L13,10.75 L23.75,4.5" id="路径-10" stroke="#057EFF"></path>
        <line x1="4.5" y1="15.5" x2="13" y2="19.75" id="路径-10备份" stroke="#057EFF"></line>
        <path d="M6.625,19.5625 L8.75,20.625 L10.875,21.6875" id="路径-10备份-2" stroke="#057EFF"></path>
        <path d="M6.625,21.5625 L8.75,22.625 L10.875,23.6875" id="路径-10备份-3" stroke="#057EFF"></path>
        <line x1="8.75" y1="11.625" x2="10.875" y2="12.6875" id="路径-10备份-4" stroke="#057EFF"></line>
        <line x1="13" y1="10.5" x2="13" y2="27.25" id="路径-11" stroke="#057EFF"></line>
    </g>
</svg>