<?xml version="1.0" standalone="no"?><!DOCTYPE svg PUBLIC "-//W3C//DTD SVG 1.1//EN" "http://www.w3.org/Graphics/SVG/1.1/DTD/svg11.dtd"><svg t="1719538634672" class="icon" viewBox="0 0 1024 1024" version="1.1" xmlns="http://www.w3.org/2000/svg" p-id="9564" xmlns:xlink="http://www.w3.org/1999/xlink" width="200" height="200"><path d="M511.99584 511.99584m-511.99584 0a511.99584 511.99584 0 1 0 1023.99168 0 511.99584 511.99584 0 1 0-1023.99168 0Z" fill="#FFFFFF" p-id="9565"></path><path d="M511.99584 0a511.99584 511.99584 0 0 1 58.431525 1020.663707l-0.703994 1.023992-1.151991-0.767994A511.99584 511.99584 0 1 1 511.99584 0z m0 735.99402c-42.239657 0-84.031317 3.583971-124.990984 10.559914 23.039813 75.519386 57.279535 147.070805 101.631174 212.734272a455.3563 455.3563 0 0 0 46.655621 0.063999 794.937541 794.937541 0 0 0 101.759173-212.670272A731.514056 731.514056 0 0 0 511.99584 735.99402z m187.838474 24.191803l-6.719946 21.247828c-18.879847 57.79153-43.903643 113.27908-74.623393 165.822653a447.804362 447.804362 0 0 0 224.126179-132.92692 723.194124 723.194124 0 0 0-142.718841-54.143561z m-375.676948 0l-7.551938 1.983984c-46.71962 12.799896-91.967253 30.271754-135.230902 52.095577A447.228366 447.228366 0 0 0 405.564705 947.192304a855.993045 855.993045 0 0 1-81.343339-187.006481zM288.637655 544.123579H65.151471a445.436381 445.436381 0 0 0 75.839383 219.13422c53.119568-28.031772 109.183113-49.791595 167.230642-65.023472a853.753063 853.753063 0 0 1-19.647841-154.110748z m670.266554 0h-223.422185c-1.919984 52.351575-8.511931 103.935156-19.583841 154.238747a789.113588 789.113588 0 0 1 167.230642 64.767474A444.924385 444.924385 0 0 0 958.840209 543.99558z m-287.485664 0H352.637135c1.919984 47.679613 7.935936 94.71923 17.983854 140.478859a804.985459 804.985459 0 0 1 282.685703-0.064c10.111918-45.759628 16.191868-92.735247 18.047853-140.414859zM140.926855 260.92588l-0.447996 0.639995A445.436381 445.436381 0 0 0 65.151471 479.9961L288.573655 479.9961c1.919984-52.415574 8.511931-103.999155 19.583841-154.238747a789.113588 789.113588 0 0 1-167.230641-64.831473z m512.379837 78.463362l-11.519907 2.111983a805.753453 805.753453 0 0 1-271.101797-1.919984A792.953557 792.953557 0 0 0 352.637135 479.9961h318.71741c-1.919984-47.743612-7.935936-94.71923-18.047853-140.606858z m229.758133-78.527362l-21.567825 10.943912c-46.655621 22.719815-95.359225 40.767669-145.598817 53.951561 11.007911 50.303591 17.599857 101.887172 19.519842 154.238747h223.422184a445.436381 445.436381 0 0 0-75.775384-219.13422zM511.99584 63.99948c-7.807937 0-15.551874 0.191998-23.295811 0.639995l5.567955-8.191934a795.897533 795.897533 0 0 0-107.327128 220.926205 741.305977 741.305977 0 0 0 250.045968 0.064A792.953557 792.953557 0 0 0 535.291651 64.639475 424.956547 424.956547 0 0 0 511.99584 63.99948z m106.367136 12.735897l5.119958 8.639929c32.127739 56.383542 57.727531 116.223056 76.28738 178.366551 49.343599-12.863895 97.151211-30.975748 142.78284-53.951562a446.71637 446.71637 0 0 0-224.190178-133.118918z m-212.862271 0l-12.607897 3.263973a447.932361 447.932361 0 0 0-211.518282 129.662946c45.631629 23.039813 93.439241 41.215665 142.84684 54.143561A856.313042 856.313042 0 0 1 405.500705 76.799376z" fill="#2B8CF0" p-id="9566"></path></svg>