<?xml version="1.0" encoding="UTF-8"?>
<svg width="36px" height="36px" viewBox="0 0 36 36" version="1.1" xmlns="http://www.w3.org/2000/svg" xmlns:xlink="http://www.w3.org/1999/xlink">
    <title>设备3</title>
    <g id="设备3" stroke="none" stroke-width="1" fill="none" fill-rule="evenodd">
        <polygon id="矩形" fill="#D0F9F6" points="0 14 18 24.25 36 14 36 22 18 31.5 0 22"></polygon>
        <polygon id="矩形备份" fill="#FFFFFF" points="0 14 18 24.25 36 14 18 4.25"></polygon>
        <path d="M18,4 L36,14 L36,22 L18,31.75 L0,22 L0,14 L18,4 Z M1,15.112 L1,21.404 L17.999,30.612 L35,21.403 L35,15.246 L18.2454219,24.6856238 L17.99825,24.8248756 L17.7519305,24.6841216 L1,15.112 Z M18,5.144 L1.558,14.278 L18.002,23.674 L34.562,14.345 L18,5.144 Z M20,19 L18,20.5 L16,19 L20,19 Z M18,8 L20,9.5 L19,9.5 L19.0006187,10.8201006 C20.8143451,11.0779853 22.2714653,12.0231198 22.7930523,13.2502552 L24.5,13.25 L24.5,12.5 L27.5,14 L24.5,15.5 L24.5,14.75 L22.949301,14.7503138 C22.6496968,16.2155625 21.053606,17.3879953 19.0006187,17.6798994 L19,19 L17,19 L17.0003896,17.6800427 C14.9469166,17.3883792 13.3503523,16.2158023 13.050699,14.7503138 L11.5,14.75 L11.5,15.5 L8.5,14 L11.5,12.5 L11.5,13.25 L13.2069477,13.2502552 C13.7286314,12.0228925 15.186195,11.0776351 17.0003896,10.8199573 L17,9.5 L16,9.5 L18,8 Z M18,11.75 C15.7303011,11.75 14,12.9612108 14,14.25 C14,15.5387892 15.7303011,16.75 18,16.75 C20.2696989,16.75 22,15.5387892 22,14.25 C22,12.9612108 20.2696989,11.75 18,11.75 Z" id="矩形" fill="#11C3B7" fill-rule="nonzero"></path>
    </g>
</svg>