<?xml version="1.0" encoding="UTF-8"?>
<svg width="36px" height="36px" viewBox="0 0 36 36" version="1.1" xmlns="http://www.w3.org/2000/svg" xmlns:xlink="http://www.w3.org/1999/xlink">
    <title>设备2</title>
    <g id="设备2" stroke="none" stroke-width="1" fill="none" fill-rule="evenodd">
        <polygon id="矩形" fill="#FFFFFF" points="18 -1.27897692e-13 36 9 18.75 18.25 0 9"></polygon>
        <polygon id="矩形" fill="#DBECFF" points="0 9 18.75 18 36 9 36 27 18.75 36 0 27"></polygon>
        <path d="M19,10 L19,12 L20.5,12 L18,14 L15.5,12 L17,12 L17,10 L19,10 Z M13,7.5 L13,8.25 L16,8.25 L16,9.75 L13,9.75 L13,10.5 L10,9 L13,7.5 Z M23,7.5 L26,9 L23,10.5 L23,9.75 L20,9.75 L20,8.25 L23,8.25 L23,7.5 Z M18,4 L20.5,6 L19,6 L19,8 L17,8 L17,6 L15.5,6 L18,4 Z" id="形状结合" fill="#1885F9"></path>
        <path d="M18,0 L36,9 L36,27 L18.75,36 L0,27 L0,9 L18,0 Z M1,21.294 L1,26.371 L18.731,34.881 L35,26.393 L35,21.325 L18.981509,29.6931744 L18.7595958,29.8090992 L18.5338353,29.7008579 L1,21.294 Z M12.2379517,28.8301359 L13.2161647,29.2991421 C13.4651666,29.4185266 13.5702423,29.7171628 13.4508579,29.9661647 C13.3314734,30.2151666 13.0328372,30.3202423 12.7838353,30.2008579 L11.8056222,29.7318516 C11.5566203,29.6124671 11.4515446,29.3138309 11.5709291,29.064829 C11.6903136,28.8158271 11.9889498,28.7107514 12.2379517,28.8301359 Z M1,15.544 L1,20.185 L18.739,28.69 L35,20.196 L35,15.575 L18.981509,23.9431744 L18.7595958,24.0590992 L18.5338353,23.9508579 L1,15.544 Z M5.06937775,25.3931484 L9.63187775,27.5806484 C9.88087967,27.7000329 9.98595537,27.9986691 9.86657089,28.247671 C9.7471864,28.4966729 9.44855022,28.6017486 9.1995483,28.4823641 L4.6370483,26.2948641 C4.38804638,26.1754796 4.28297068,25.8768434 4.40235517,25.6278415 C4.52173965,25.3788396 4.82037583,25.2737639 5.06937775,25.3931484 Z M12.2379517,22.8301359 L13.2161647,23.2991421 C13.4651666,23.4185266 13.5702423,23.7171628 13.4508579,23.9661647 C13.3314734,24.2151666 13.0328372,24.3202423 12.7838353,24.2008579 L11.8056222,23.7318516 C11.5566203,23.6124671 11.4515446,23.3138309 11.5709291,23.064829 C11.6903136,22.8158271 11.9889498,22.7107514 12.2379517,22.8301359 Z M1,10.294 L1,14.435 L18.739,22.94 L35,14.446 L35,10.325 L18.981509,18.6931744 L18.7595958,18.8090992 L18.5338353,18.7008579 L1,10.294 Z M5.06937775,19.3931484 L9.63187775,21.5806484 C9.88087967,21.7000329 9.98595537,21.9986691 9.86657089,22.247671 C9.7471864,22.4966729 9.44855022,22.6017486 9.1995483,22.4823641 L4.6370483,20.2948641 C4.38804638,20.1754796 4.28297068,19.8768434 4.40235517,19.6278415 C4.52173965,19.3788396 4.82037583,19.2737639 5.06937775,19.3931484 Z M12.2379517,17.3301359 L13.2161647,17.7991421 C13.4651666,17.9185266 13.5702423,18.2171628 13.4508579,18.4661647 C13.3314734,18.7151666 13.0328372,18.8202423 12.7838353,18.7008579 L11.8056222,18.2318516 C11.5566203,18.1124671 11.4515446,17.8138309 11.5709291,17.564829 C11.6903136,17.3158271 11.9889498,17.2107514 12.2379517,17.3301359 Z M18,1.118 L1.441,9.397 L18.739,17.69 L34.588,9.411 L18,1.118 Z M5.06937775,13.8931484 L9.63187775,16.0806484 C9.88087967,16.2000329 9.98595537,16.4986691 9.86657089,16.747671 C9.7471864,16.9966729 9.44855022,17.1017486 9.1995483,16.9823641 L4.6370483,14.7948641 C4.38804638,14.6754796 4.28297068,14.3768434 4.40235517,14.1278415 C4.52173965,13.8788396 4.82037583,13.7737639 5.06937775,13.8931484 Z" id="矩形" fill="#1885F9" fill-rule="nonzero"></path>
    </g>
</svg>